<svg version="1.1" x="0px" y="0px" width="195.98628234863" height="165" xmlns="http://www.w3.org/2000/svg" xmlns:xlink="http://www.w3.org/1999/xlink" xmlns:a="http://ns.adobe.com/AdobeSVGViewerExtensions/3.0/" xml:space="preserve"><g transform="translate(0 0)"><g transform="translate(0 0) scale(1.7639412866328 1.7639431766862) rotate(0 55.553516387939 46.770214080811)"><path d="M50.468 23.785h4.102v-4.104h-4.102v4.104zm6.05-4.103v4.104h4.104v-4.104h-4.104zm-6.05 9.742h4.102v-4.102h-4.102v4.102zm6.05 0h4.104v-4.102h-4.104v4.102zM91.908 74.383c2.295-2.297.116-4.303-1.835-4.875L76.25 64.574c-3.326-1.262-3.672.975-3.27 2.695.401 1.721 3.27 9.328 4.646 12.617 1.377 3.289 1.76 4.588 3.976 3.979 1.061-.293 2.934-1.945 4.853-3.842l.321-.327 2.188 2.175a.67.67 0 00.951-.002l.552-.557a.67.67 0 00-.003-.949l-2.198-2.185.321-.327c1.329-1.384 2.533-2.681 3.321-3.468z" fill="#59595c"></path><path d="M91.92 81.613c.254-.24.247-.662-.018-.938l-.158-.164c-.262-.275-.682-.301-.936-.059l-2.828 2.705c-.256.242-.248.662.016.936l.158.166c.264.277.682.301.934.061l2.832-2.707zm8.15 6.959l-7.311-7.344-3.991 3.916 7.341 7.373c1.238 1.246 3.131 1.371 4.226.283 1.092-1.091.976-2.984-.265-4.228z" fill="#d93827"></path><path d="M111.107 36.842L55.57.01 55.553 0l-.013.01L0 36.842h11.771l.036-.024 4.378.024-1.754-1.725L55.553 8.5l41.2 26.67-1.702 1.672 4.251-.024.033.024z" fill="#59595c"></path><path d="M76.576 62.717c3.255 1.234 11.854 4.35 13.757 4.908.211.063.43.143.651.238 1.847-2.082 1.804-6.152 1.804-7.711V40.57c0-1.574-.544-2.494-1.922-2.408-1.211.076-1.538.967-1.538 2.344v8.508c0 1.316-.038 1.93-.765 1.93-.649 0-.824-.631-.824-1.053v-4.492c0-1.529-.63-2.045-1.413-2.066-.735-.016-1.472.498-1.472 1.553v2.311c0 1.512-.498 1.875-1.434 1.875-.938 0-1.186-.898-1.186-1.799V36.895c0-1.359-.498-1.99-1.645-1.99s-1.491 1.051-1.491 1.914v2.275c0 1.373-.344 1.893-1.376 1.893-1.031 0-1.358-.861-1.358-1.475v-1.701c0-1.014-.631-1.281-1.261-1.262-.632.021-1.185.613-1.185 1.645v24.164c.196-.041.408-.066.647-.066.593-.003 1.25.134 2.011.425" fill="#59595c"></path><path d="M24.082 69.945h-4.218v6.77h4.218v-6.77zm17.853-33.547H26.043v6.768h15.891v-6.768zm-17.853 0h-4.218v6.768h4.218v-6.768zm36 0h-15.89v6.768h15.89v-6.768zm-27.27 8.241H19.864v6.77h12.948v-6.77zm18.146 0H35.067v6.77h15.891v-6.77zm18.098 0h-15.89v6.77h15.891v-6.77zM26.043 59.941h15.891v-6.768H26.043v6.768zm-1.961-6.767h-4.218v6.768h4.218v-6.768zm20.11 6.767h15.89v-6.768h-15.89v6.768zm-11.38 1.473H19.864v6.768h12.948v-6.768zm18.146 0H35.067v6.768h15.891v-6.768zm18.098 0h-15.89v6.768h15.891v-6.768zM26.043 76.715h15.891v-6.77H26.043v6.77zm34.039-6.77h-15.89v6.77h15.89v-6.77zM19.864 84.953h12.948v-6.768H19.864v6.768zm15.203 0h15.891v-6.768H35.067v6.768zm27.318-48.555v6.768h9.123v-6.768h-9.123zm0 23.543h9.123v-6.768h-9.123v6.768zm0 16.774h9.123v-6.77h-9.123v6.77zm-9.219 8.238h15.891v-6.768H53.166v6.768z" fill="#d93827"></path></g></g></svg>