<?xml version="1.0" encoding="UTF-8"?>
<svg id="Layer_1" data-name="Layer 1" xmlns="http://www.w3.org/2000/svg" xmlns:xlink="http://www.w3.org/1999/xlink" viewBox="0 0 457.57 61.87">
  <defs>
    <style>
      .cls-1 {
        fill: #59595c;
      }

      .cls-2 {
        clip-path: url(#clippath-1);
      }

      .cls-3 {
        clip-path: url(#clippath);
      }

      .cls-4 {
        fill: none;
      }

      .cls-5 {
        fill: #d93827;
      }
    </style>
    <clipPath id="clippath">
      <rect class="cls-4" width="457.57" height="61.87"/>
    </clipPath>
    <clipPath id="clippath-1">
      <rect class="cls-4" width="457.57" height="61.87"/>
    </clipPath>
  </defs>
  <path class="cls-1" d="m33.38,15.73h2.71v-2.71h-2.71v2.71Zm4-2.71v2.71h2.71v-2.71h-2.71Zm-4,6.44h2.71v-2.71h-2.71v2.71Zm4,0h2.71v-2.71h-2.71v2.71Zm23.41,29.74c1.52-1.52.08-2.85-1.22-3.22l-9.14-3.26c-2.2-.84-2.43.64-2.16,1.78.27,1.14,2.16,6.17,3.07,8.35.91,2.17,1.16,3.03,2.63,2.63.7-.19,1.94-1.29,3.21-2.54l.21-.22,1.45,1.44c.17.17.46.17.63,0l.37-.37c.17-.17.17-.46,0-.63l-1.45-1.45.21-.22c.88-.91,1.68-1.77,2.2-2.29h0Zm0,0"/>
  <path class="cls-5" d="m60.8,53.98c.17-.16.16-.44-.01-.62l-.11-.11c-.17-.18-.45-.2-.62-.04l-1.87,1.79c-.17.16-.16.44.01.62l.1.11c.18.18.45.2.62.04l1.87-1.79Zm5.39,4.6l-4.84-4.86-2.64,2.59,4.86,4.88c.82.82,2.07.91,2.8.19.72-.72.64-1.97-.18-2.8h0Zm0,0"/>
  <path class="cls-1" d="m73.5,24.37L36.76,0h-.01s0,0,0,0L0,24.37h7.79l.02-.02,2.9.02-1.16-1.14L36.75,5.62l27.25,17.64-1.12,1.11,2.81-.02.02.02h7.79Zm0,0"/>
  <path class="cls-1" d="m50.65,41.49c2.15.82,7.84,2.88,9.1,3.25.14.04.28.09.43.16,1.22-1.38,1.19-4.07,1.19-5.1v-12.95c0-1.04-.36-1.65-1.27-1.59-.8.05-1.02.64-1.02,1.55v5.63c0,.87-.03,1.28-.51,1.28-.43,0-.55-.42-.55-.7v-2.97c0-1.01-.42-1.35-.94-1.37-.49-.01-.97.33-.97,1.03v1.53c0,1-.33,1.24-.95,1.24s-.78-.6-.78-1.19v-6.86c0-.9-.33-1.31-1.09-1.31s-.99.69-.99,1.27v1.5c0,.91-.23,1.25-.91,1.25s-.9-.57-.9-.98v-1.12c0-.67-.42-.85-.83-.84-.42.01-.78.41-.78,1.09v15.98c.13-.03.27-.04.43-.04.39,0,.83.09,1.33.28"/>
  <g class="cls-3">
    <path class="cls-5" d="m15.93,46.27h-2.79v4.48h2.79v-4.48Zm11.81-22.19h-10.51v4.48h10.51v-4.48Zm-11.81,0h-2.79v4.48h2.79v-4.48Zm23.81,0h-10.51v4.48h10.51v-4.48Zm-18.04,5.45h-8.56v4.48h8.56v-4.48Zm12,0h-10.51v4.48h10.51v-4.48Zm11.97,0h-10.51v4.48h10.51v-4.48Zm-28.45,10.12h10.51v-4.48h-10.51v4.48Zm-1.3-4.48h-2.79v4.48h2.79v-4.48Zm13.3,4.48h10.51v-4.48h-10.51v4.48Zm-7.53.97h-8.56v4.48h8.56v-4.48Zm12,0h-10.51v4.48h10.51v-4.48Zm11.97,0h-10.51v4.48h10.51v-4.48Zm-28.45,10.12h10.51v-4.48h-10.51v4.48Zm22.52-4.48h-10.51v4.48h10.51v-4.48Zm-26.6,9.93h8.56v-4.48h-8.56v4.48Zm10.06,0h10.51v-4.48h-10.51v4.48Zm18.07-32.12v4.48h6.04v-4.48h-6.04Zm0,15.57h6.04v-4.48h-6.04v4.48Zm0,11.1h6.04v-4.48h-6.04v4.48Zm-6.1,5.45h10.51v-4.48h-10.51v4.48Zm0,0"/>
    <path class="cls-5" d="m90.35,34.26c-1.3,2.67-3.24,4.64-5.81,5.91V9.97c.56,0,1.18.08,1.86.24.69.16,1.32.39,1.89.7.57.31,1.05.7,1.45,1.14.41.45.61.95.61,1.5v20.7Zm10,1.34v5.86h-14.5c2.54-1.61,4.49-3.57,5.86-5.86h8.64Zm10.93-25.49v31.3h-6.38V13.6c0-1.18.6-2.05,1.8-2.63,1.2-.57,2.72-.86,4.58-.86h0Zm0,0"/>
  </g>
  <path class="cls-5" d="m134.63,10.4c1.11-.34,2.22-.49,3.31-.44,1.1.04,2.16.27,3.19.67l-7.95,27.39c-.3.65-.7,1.22-1.2,1.72-.44.44-.97.83-1.59,1.17-.62.34-1.37.5-2.27.5s-1.65-.16-2.25-.5c-.6-.34-1.12-.73-1.56-1.17-.5-.5-.91-1.07-1.22-1.72l-7.94-27.39c.99-.41,2.04-.63,3.16-.67,1.11-.05,2.21.09,3.3.44l6.51,25.06,6.52-25.06Zm0,0"/>
  <path class="cls-5" d="m160.95,41.36l-2.23-8.28c-.44.22-.98.43-1.61.64-.64.2-1.32.3-2.06.3-.56,0-1.06-.05-1.5-.16-.43-.11-.8-.25-1.11-.41-.34-.16-.67-.34-.97-.56l1.02-4.59c.22.09.45.17.7.23.22.06.47.11.76.14.29.03.61.05.95.05.31,0,.72-.05,1.23-.14.51-.09.92-.3,1.23-.61l-3.64-12.37-7.16,25.77h-6.5l8.45-28.08c.31-.59.74-1.14,1.27-1.64.43-.39.96-.77,1.61-1.11.66-.34,1.43-.52,2.33-.52s1.69.17,2.36.52c.66.34,1.21.71,1.64,1.11.5.5.92,1.05,1.26,1.64l8.5,28.08h-6.55Zm0,0"/>
  <path class="cls-1" d="m207.16,13.51c.34-.61.74-1.19,1.2-1.72.41-.43.91-.83,1.52-1.2.6-.38,1.32-.56,2.16-.56s1.49.19,2.05.56c.56.38,1.03.78,1.41,1.2.43.53.78,1.11,1.06,1.72l2.61,27.77h-6.14l-.99-25.44-6.17,23.16-2.61-9.95,3.91-15.53Zm-19.16,0c.25-.61.59-1.19,1.02-1.72.38-.43.85-.83,1.42-1.2.57-.38,1.27-.56,2.11-.56s1.52.19,2.13.56c.6.38,1.11.78,1.52,1.2.46.53.86,1.11,1.2,1.72l2.92,11.72,1.27,4.14.69,2.52,2.61,9.39h-5.53l-6.8-25.44-.97,25.44h-6.19l2.61-27.77Zm54.54,27.86l-2.23-8.28c-.44.22-.98.43-1.61.64-.64.2-1.32.3-2.06.3-.56,0-1.06-.05-1.5-.16-.43-.11-.8-.25-1.11-.41-.34-.16-.67-.34-.97-.56l1.01-4.59c.22.09.45.17.7.23.22.06.47.11.77.14.29.03.61.05.95.05.31,0,.72-.05,1.23-.14.51-.09.92-.3,1.23-.61l-3.64-12.37-7.16,25.77h-6.5l8.45-28.08c.31-.59.73-1.14,1.27-1.64.43-.39.96-.77,1.61-1.11.66-.34,1.43-.52,2.33-.52s1.69.17,2.36.52c.66.34,1.21.71,1.64,1.11.5.5.92,1.05,1.27,1.64l8.5,28.08h-6.55Zm0,0"/>
  <path class="cls-1" d="m257.43,25.79c0,1.84.29,3.56.86,5.19.57,1.63,1.37,3.12,2.39,4.48,1.02,1.37,2.24,2.56,3.67,3.58,1.43,1.02,2.98,1.81,4.66,2.38-.75.09-1.48.14-2.19.14-2.26,0-4.37-.4-6.33-1.2-1.95-.81-3.65-1.93-5.09-3.36-1.44-1.43-2.57-3.09-3.39-5-.82-1.91-1.23-3.97-1.23-6.2s.39-4.3,1.19-6.22c.79-1.93,1.88-3.61,3.28-5.05,1.39-1.44,3.05-2.58,4.95-3.41,1.91-.82,3.99-1.23,6.25-1.23.34,0,.8.04,1.38.12.57.07,1.03.11,1.38.11-1.68.5-3.24,1.24-4.69,2.22-1.44.97-2.68,2.15-3.73,3.53-1.06,1.37-1.88,2.9-2.47,4.58-.59,1.68-.88,3.46-.88,5.34h0Zm9.62,9.91c.77-.06,1.44-.14,2.01-.23.57-.09,1.08-.2,1.52-.33.44-.12.82-.27,1.16-.45.34-.19.7-.41,1.08-.66.19.81.51,1.66.97,2.58.47.92,1.04,1.7,1.72,2.34-.68.47-1.46.87-2.34,1.19-.89.32-1.78.56-2.67.72-.74-.4-1.52-.82-2.33-1.27-.81-.46-1.59-.93-2.34-1.41-.76-.48-1.46-.99-2.09-1.53-.64-.54-1.17-1.09-1.61-1.66.53.16,1.25.33,2.16.52.91.19,1.84.25,2.78.19h0Zm3.44-24.97c1.02.16,1.94.39,2.77.7.82.3,1.57.61,2.25.92-.68.83-1.25,1.68-1.72,2.53-.46.86-.78,1.78-.97,2.77-.84-.49-1.68-.89-2.51-1.22-.84-.33-1.96-.56-3.39-.69-1.18-.03-2.14.02-2.89.14-.74.12-1.38.26-1.91.42.44-.56.97-1.1,1.61-1.62.63-.53,1.33-1.04,2.09-1.52.76-.48,1.54-.91,2.34-1.31.81-.41,1.59-.78,2.33-1.13h0Zm0,0"/>
  <path class="cls-1" d="m284.77,25.55c0,1.87.27,3.64.81,5.33.54,1.69,1.29,3.21,2.25,4.58.97,1.37,2.12,2.54,3.45,3.53,1.33.99,2.77,1.73,4.31,2.23h-1.95c-2.14,0-4.12-.4-5.97-1.2-1.84-.81-3.45-1.92-4.8-3.33-1.34-1.41-2.41-3.06-3.19-4.97-.77-1.91-1.16-3.97-1.16-6.17s.38-4.3,1.16-6.2c.78-1.91,1.84-3.56,3.19-4.97,1.35-1.41,2.95-2.52,4.8-3.33,1.84-.81,3.83-1.22,5.97-1.22h1.95c-1.54.5-2.98,1.26-4.31,2.28-1.34,1.02-2.48,2.23-3.45,3.62-.96,1.4-1.71,2.93-2.25,4.61-.54,1.68-.81,3.41-.81,5.2h0Zm23.01,0c0,1.8-.26,3.5-.76,5.09-.51,1.59-1.24,3.06-2.19,4.38-.95,1.31-2.09,2.45-3.42,3.39-1.34.95-2.82,1.67-4.45,2.16-1.49-.64-2.88-1.46-4.17-2.44-1.28-.98-2.42-2.13-3.41-3.47.52.34,1.08.54,1.69.59.6.04,1.25.06,1.94.06,1.3,0,2.53-.24,3.69-.73,1.16-.5,2.17-1.19,3.03-2.08.85-.88,1.52-1.91,2.02-3.09.5-1.18.75-2.46.75-3.86,0-1.49-.25-2.85-.75-4.09-.49-1.24-1.17-2.31-2.02-3.2-.86-.89-1.87-1.59-3.03-2.09-1.16-.5-2.39-.75-3.69-.75-.69,0-1.34.07-1.94.22-.61.14-1.17.28-1.69.44.99-1.3,2.18-2.39,3.58-3.28,1.39-.88,2.84-1.65,4.33-2.3,1.54.5,2.95,1.23,4.24,2.17,1.29.94,2.4,2.07,3.33,3.39.94,1.31,1.66,2.78,2.17,4.39.51,1.62.76,3.32.76,5.11h0Zm0,0"/>
  <path class="cls-1" d="m330.75,10.02c.64,0,1.3.04,1.98.12.69.08,1.36.25,2.02.53.53.25.99.68,1.39,1.28.41.61.61,1.17.61,1.69v27.81h-6V10.02Zm-7.95,3.3c-.34-.58-.78-1.12-1.3-1.62-.44-.43-.99-.81-1.66-1.16-.67-.34-1.45-.52-2.34-.52s-1.62.17-2.22.52c-.6.34-1.12.73-1.55,1.16-.5.5-.92,1.04-1.26,1.62v28.14h6.66l-1.63-25.91,11.95,24.28v-13.11l-6.66-13.41Zm0,0"/>
  <path class="cls-1" d="m360.98,10.02c.64,0,1.3.04,1.98.12.69.08,1.36.25,2.02.53.53.25.99.68,1.39,1.28.41.61.61,1.17.61,1.69v27.81h-6V10.02Zm-7.95,3.3c-.34-.58-.78-1.12-1.3-1.62-.44-.43-.99-.81-1.66-1.16-.67-.34-1.45-.52-2.34-.52s-1.62.17-2.22.52c-.61.34-1.12.73-1.55,1.16-.5.5-.92,1.04-1.27,1.62v28.14h6.66l-1.62-25.91,11.95,24.28v-13.11l-6.66-13.41Zm0,0"/>
  <path class="cls-1" d="m391.39,10.02c.68,1.68.68,3.33,0,4.94h-11.48c-.81-1-1.82-1.94-3.03-2.81-1.21-.88-2.4-1.59-3.58-2.12h18.09Zm0,13.11c.68,1.62.68,3.26,0,4.94h-12.47v7.16c-.68,1.18-1.55,2.15-2.61,2.91-1.05.76-2.17,1.31-3.34,1.66V11.38c1.18.49,2.25,1.12,3.23,1.91.98.77,1.88,1.65,2.72,2.64v7.2h12.47Zm0,18.33h-17.77c1.18-.5,2.34-1.19,3.5-2.06,1.16-.88,2.09-1.83,2.78-2.83h11.48c.68,1.59.68,3.21,0,4.89h0Zm0,0"/>
  <path class="cls-1" d="m397.85,14.11c1.12.16,2.16.53,3.12,1.12.96.59,1.84,1.28,2.64,2.08v23.95h-5.77V14.11Zm18.42-1.01c.64.52,1.17,1.3,1.59,2.33.43,1.02.64,2.09.64,3.2,0,1.21-.19,2.4-.56,3.56-.38,1.16-.92,2.2-1.64,3.11-.71.92-1.6,1.65-2.67,2.19-1.06.54-2.31.81-3.73.81h-.58c-.29,0-.61-.02-.95-.06-.34-.05-.65-.11-.91-.19-.26-.08-.39-.2-.39-.36v-5.16c0,.09.07.17.22.23.16.06.33.12.53.19.21.05.42.1.64.16.22.04.39.06.52.06.64.06,1.25,0,1.83-.2.57-.19,1.08-.5,1.53-.91.46-.41.8-.88,1.05-1.42.25-.54.38-1.1.38-1.69,0-1.09-.45-2.05-1.33-2.89-.88-.83-2.11-1.25-3.69-1.25-.62,0-1.18.09-1.67.28-.09,0-.28.05-.56.14-.28.09-.57.2-.86.34-.29.14-.56.28-.81.42-.25.14-.38.25-.38.34,0,0,.02.02.05.05-.31-.31-.7-.64-1.14-1-.45-.35-.93-.69-1.44-1-.51-.31-1.04-.58-1.58-.81-.54-.23-1.05-.39-1.52-.48.47-.47,1.04-.89,1.72-1.28.68-.38,1.41-.72,2.2-1,.79-.28,1.62-.49,2.48-.62.87-.14,1.74-.22,2.61-.22,1.55,0,3.06.24,4.53.72,1.48.48,2.77,1.28,3.89,2.41h0Zm4.28,26.83c.06.06.16.19.31.38.16.18.34.36.56.55.22.22.48.47.8.75h-5.62c-.62-.5-1.2-.99-1.7-1.49-.51-.5-.89-1.07-1.14-1.72-.28-.81-.46-1.55-.53-2.22-.07-.66-.11-1.32-.11-1.97s-.09-1.34-.28-2.05c-.19-.72-.53-1.24-1.03-1.58-.16-.16-.34-.29-.56-.39-.21-.11-.44-.3-.69-.55,1.98,0,3.79-.65,5.44-1.95.66.44,1.16.96,1.53,1.56.38.61.66,1.26.84,1.95.19.7.31,1.41.38,2.14.06.73.09,1.43.09,2.11,0,.5.02.93.08,1.28.06.36.16.7.3,1.03.14.33.33.66.55,1,.22.34.48.72.8,1.16h0Zm0,0"/>
  <g class="cls-2">
    <path class="cls-1" d="m432.31,10.11v31.3h-6.38V13.6c0-1.18.6-2.05,1.8-2.63,1.2-.57,2.72-.86,4.58-.86h0Zm0,0"/>
    <path class="cls-1" d="m456.91,10.02c.68,1.68.68,3.33,0,4.94h-11.48c-.81-1-1.82-1.94-3.03-2.81-1.21-.88-2.4-1.59-3.58-2.12h18.09Zm0,13.11c.68,1.62.68,3.26,0,4.94h-12.47v7.16c-.68,1.18-1.55,2.15-2.61,2.91-1.06.76-2.17,1.31-3.34,1.66V11.38c1.18.49,2.25,1.12,3.23,1.91.98.77,1.88,1.65,2.72,2.64v7.2h12.47Zm0,18.33h-17.76c1.17-.5,2.34-1.19,3.5-2.06,1.16-.88,2.09-1.83,2.78-2.83h11.48c.68,1.59.68,3.21,0,4.89h0Zm0,0"/>
  </g>
  <rect class="cls-5" x="87.16" y="56.41" width="367.42" height="2.08"/>
</svg>